<svg width="830" height="711" viewBox="0 0 830 711" fill="none" xmlns="http://www.w3.org/2000/svg">
<path d="M764.772 604.476L820.772 705.476C754.272 704.382 717.488 701.484 662.272 667.476C465.772 730.476 346.272 624.476 310.772 551.976C242.71 412.976 361.272 181.758 641.272 250.476C847.772 301.155 851.772 511.476 764.772 604.476Z" fill="#1E40C8" stroke="#1E1496" stroke-width="10"/>
<path d="M65.0003 371.476L9 472.476C75.5003 471.382 112.285 468.484 167.5 434.476C364 497.476 483.5 391.476 519 318.976C587.062 179.976 468.5 -51.2422 188.5 17.4757C-18 68.1552 -22 278.476 65.0003 371.476Z" fill="#428DFC" stroke="#0045AC" stroke-width="10"/>
<path d="M356.646 214.244C356.646 234.85 353.375 252.623 346.832 267.564C340.289 282.408 331.109 294.029 319.293 302.428L357.379 332.311L338.189 350.035L293.219 314.293C286.188 316.051 278.766 316.93 270.953 316.93C254.156 316.93 239.264 312.828 226.275 304.625C213.287 296.324 203.18 284.557 195.953 269.322C188.824 253.99 185.162 236.266 184.967 216.148V200.768C184.967 180.26 188.531 162.145 195.66 146.422C202.789 130.699 212.848 118.688 225.836 110.387C238.922 101.988 253.863 97.7891 270.66 97.7891C287.848 97.7891 302.936 101.939 315.924 110.24C329.01 118.541 339.068 130.504 346.1 146.129C353.131 161.656 356.646 179.82 356.646 200.621V214.244ZM328.521 200.475C328.521 175.377 323.492 156.041 313.434 142.467C303.473 128.795 289.215 121.959 270.66 121.959C252.984 121.959 239.02 128.746 228.766 142.32C218.609 155.797 213.385 174.547 213.092 198.57V214.244C213.092 238.658 218.17 257.896 228.326 271.959C238.58 286.021 252.789 293.053 270.953 293.053C289.117 293.053 303.18 286.461 313.141 273.277C323.102 259.996 328.229 241.002 328.521 216.295V200.475Z" fill="white"/>
<path d="M356.646 214.244C356.646 234.85 353.375 252.623 346.832 267.564C340.289 282.408 331.109 294.029 319.293 302.428L357.379 332.311L338.189 350.035L293.219 314.293C286.188 316.051 278.766 316.93 270.953 316.93C254.156 316.93 239.264 312.828 226.275 304.625C213.287 296.324 203.18 284.557 195.953 269.322C188.824 253.99 185.162 236.266 184.967 216.148V200.768C184.967 180.26 188.531 162.145 195.66 146.422C202.789 130.699 212.848 118.688 225.836 110.387C238.922 101.988 253.863 97.7891 270.66 97.7891C287.848 97.7891 302.936 101.939 315.924 110.24C329.01 118.541 339.068 130.504 346.1 146.129C353.131 161.656 356.646 179.82 356.646 200.621V214.244ZM328.521 200.475C328.521 175.377 323.492 156.041 313.434 142.467C303.473 128.795 289.215 121.959 270.66 121.959C252.984 121.959 239.02 128.746 228.766 142.32C218.609 155.797 213.385 174.547 213.092 198.57V214.244C213.092 238.658 218.17 257.896 228.326 271.959C238.58 286.021 252.789 293.053 270.953 293.053C289.117 293.053 303.18 286.461 313.141 273.277C323.102 259.996 328.229 241.002 328.521 216.295V200.475Z" fill="white"/>
<path d="M356.646 214.244C356.646 234.85 353.375 252.623 346.832 267.564C340.289 282.408 331.109 294.029 319.293 302.428L357.379 332.311L338.189 350.035L293.219 314.293C286.188 316.051 278.766 316.93 270.953 316.93C254.156 316.93 239.264 312.828 226.275 304.625C213.287 296.324 203.18 284.557 195.953 269.322C188.824 253.99 185.162 236.266 184.967 216.148V200.768C184.967 180.26 188.531 162.145 195.66 146.422C202.789 130.699 212.848 118.688 225.836 110.387C238.922 101.988 253.863 97.7891 270.66 97.7891C287.848 97.7891 302.936 101.939 315.924 110.24C329.01 118.541 339.068 130.504 346.1 146.129C353.131 161.656 356.646 179.82 356.646 200.621V214.244ZM328.521 200.475C328.521 175.377 323.492 156.041 313.434 142.467C303.473 128.795 289.215 121.959 270.66 121.959C252.984 121.959 239.02 128.746 228.766 142.32C218.609 155.797 213.385 174.547 213.092 198.57V214.244C213.092 238.658 218.17 257.896 228.326 271.959C238.58 286.021 252.789 293.053 270.953 293.053C289.117 293.053 303.18 286.461 313.141 273.277C323.102 259.996 328.229 241.002 328.521 216.295V200.475Z" fill="white"/>
<path d="M356.646 214.244C356.646 234.85 353.375 252.623 346.832 267.564C340.289 282.408 331.109 294.029 319.293 302.428L357.379 332.311L338.189 350.035L293.219 314.293C286.188 316.051 278.766 316.93 270.953 316.93C254.156 316.93 239.264 312.828 226.275 304.625C213.287 296.324 203.18 284.557 195.953 269.322C188.824 253.99 185.162 236.266 184.967 216.148V200.768C184.967 180.26 188.531 162.145 195.66 146.422C202.789 130.699 212.848 118.688 225.836 110.387C238.922 101.988 253.863 97.7891 270.66 97.7891C287.848 97.7891 302.936 101.939 315.924 110.24C329.01 118.541 339.068 130.504 346.1 146.129C353.131 161.656 356.646 179.82 356.646 200.621V214.244ZM328.521 200.475C328.521 175.377 323.492 156.041 313.434 142.467C303.473 128.795 289.215 121.959 270.66 121.959C252.984 121.959 239.02 128.746 228.766 142.32C218.609 155.797 213.385 174.547 213.092 198.57V214.244C213.092 238.658 218.17 257.896 228.326 271.959C238.58 286.021 252.789 293.053 270.953 293.053C289.117 293.053 303.18 286.461 313.141 273.277C323.102 259.996 328.229 241.002 328.521 216.295V200.475Z" fill="white"/>
<path d="M356.646 214.244C356.646 234.85 353.375 252.623 346.832 267.564C340.289 282.408 331.109 294.029 319.293 302.428L357.379 332.311L338.189 350.035L293.219 314.293C286.188 316.051 278.766 316.93 270.953 316.93C254.156 316.93 239.264 312.828 226.275 304.625C213.287 296.324 203.18 284.557 195.953 269.322C188.824 253.99 185.162 236.266 184.967 216.148V200.768C184.967 180.26 188.531 162.145 195.66 146.422C202.789 130.699 212.848 118.688 225.836 110.387C238.922 101.988 253.863 97.7891 270.66 97.7891C287.848 97.7891 302.936 101.939 315.924 110.24C329.01 118.541 339.068 130.504 346.1 146.129C353.131 161.656 356.646 179.82 356.646 200.621V214.244ZM328.521 200.475C328.521 175.377 323.492 156.041 313.434 142.467C303.473 128.795 289.215 121.959 270.66 121.959C252.984 121.959 239.02 128.746 228.766 142.32C218.609 155.797 213.385 174.547 213.092 198.57V214.244C213.092 238.658 218.17 257.896 228.326 271.959C238.58 286.021 252.789 293.053 270.953 293.053C289.117 293.053 303.18 286.461 313.141 273.277C323.102 259.996 328.229 241.002 328.521 216.295V200.475Z" fill="white"/>
<path d="M356.646 214.244C356.646 234.85 353.375 252.623 346.832 267.564C340.289 282.408 331.109 294.029 319.293 302.428L357.379 332.311L338.189 350.035L293.219 314.293C286.188 316.051 278.766 316.93 270.953 316.93C254.156 316.93 239.264 312.828 226.275 304.625C213.287 296.324 203.18 284.557 195.953 269.322C188.824 253.99 185.162 236.266 184.967 216.148V200.768C184.967 180.26 188.531 162.145 195.66 146.422C202.789 130.699 212.848 118.688 225.836 110.387C238.922 101.988 253.863 97.7891 270.66 97.7891C287.848 97.7891 302.936 101.939 315.924 110.24C329.01 118.541 339.068 130.504 346.1 146.129C353.131 161.656 356.646 179.82 356.646 200.621V214.244ZM328.521 200.475C328.521 175.377 323.492 156.041 313.434 142.467C303.473 128.795 289.215 121.959 270.66 121.959C252.984 121.959 239.02 128.746 228.766 142.32C218.609 155.797 213.385 174.547 213.092 198.57V214.244C213.092 238.658 218.17 257.896 228.326 271.959C238.58 286.021 252.789 293.053 270.953 293.053C289.117 293.053 303.18 286.461 313.141 273.277C323.102 259.996 328.229 241.002 328.521 216.295V200.475Z" fill="white"/>
<path d="M594.529 519.336H505.174L485.105 575H456.102L537.547 361.719H562.156L643.748 575H614.891L594.529 519.336ZM513.67 496.191H586.18L549.852 396.436L513.67 496.191Z" fill="white"/>
<path d="M594.529 519.336H505.174L485.105 575H456.102L537.547 361.719H562.156L643.748 575H614.891L594.529 519.336ZM513.67 496.191H586.18L549.852 396.436L513.67 496.191Z" fill="white"/>
<path d="M594.529 519.336H505.174L485.105 575H456.102L537.547 361.719H562.156L643.748 575H614.891L594.529 519.336ZM513.67 496.191H586.18L549.852 396.436L513.67 496.191Z" fill="white"/>
<path d="M594.529 519.336H505.174L485.105 575H456.102L537.547 361.719H562.156L643.748 575H614.891L594.529 519.336ZM513.67 496.191H586.18L549.852 396.436L513.67 496.191Z" fill="white"/>
<path d="M594.529 519.336H505.174L485.105 575H456.102L537.547 361.719H562.156L643.748 575H614.891L594.529 519.336ZM513.67 496.191H586.18L549.852 396.436L513.67 496.191Z" fill="white"/>
<path d="M594.529 519.336H505.174L485.105 575H456.102L537.547 361.719H562.156L643.748 575H614.891L594.529 519.336ZM513.67 496.191H586.18L549.852 396.436L513.67 496.191Z" fill="white"/>
</svg>
